<svg width="32" height="32" viewBox="0 0 32 32" xmlns="http://www.w3.org/2000/svg">
  <rect width="32" height="32" rx="6" fill="#1A2744"/>
  <circle cx="16" cy="16" r="9" fill="none" stroke="rgba(214,220,232,0.4)" stroke-width="1.5"/>
  <circle cx="16" cy="16" r="6" fill="none" stroke="rgba(214,220,232,0.3)" stroke-width="0.75"/>
  <path d="M16 7 A9 9 0 0 1 25 16" fill="none" stroke="white" stroke-width="2.5" stroke-linecap="round"/>
  <path d="M16 25 A9 9 0 0 1 7 16" fill="none" stroke="white" stroke-width="2.5" stroke-linecap="round"/>
  <path d="M16 10 A6 6 0 0 0 10 16" fill="none" stroke="white" stroke-width="1.5" stroke-linecap="round" opacity="0.5"/>
  <path d="M16 22 A6 6 0 0 0 22 16" fill="none" stroke="white" stroke-width="1.5" stroke-linecap="round" opacity="0.5"/>
  <line x1="16" y1="4" x2="16" y2="8" stroke="white" stroke-width="1.5" stroke-linecap="round"/>
  <line x1="16" y1="24" x2="16" y2="28" stroke="white" stroke-width="1.5" stroke-linecap="round"/>
  <line x1="4" y1="16" x2="8" y2="16" stroke="white" stroke-width="1.5" stroke-linecap="round"/>
  <line x1="24" y1="16" x2="28" y2="16" stroke="white" stroke-width="1.5" stroke-linecap="round"/>
  <line x1="16" y1="12" x2="16" y2="20" stroke="white" stroke-width="0.75" stroke-linecap="round" opacity="0.4"/>
  <line x1="12" y1="16" x2="20" y2="16" stroke="white" stroke-width="0.75" stroke-linecap="round" opacity="0.4"/>
  <circle cx="16" cy="16" r="3" fill="white"/>
  <circle cx="16" cy="7" r="1.5" fill="white" opacity="0.6"/>
  <circle cx="16" cy="25" r="1.5" fill="white" opacity="0.6"/>
  <circle cx="7" cy="16" r="1.5" fill="white" opacity="0.6"/>
  <circle cx="25" cy="16" r="1.5" fill="white" opacity="0.6"/>
</svg>
